<svg width="34" height="30" viewBox="0 0 34 30" fill="none" xmlns="http://www.w3.org/2000/svg">
<path d="M16.8032 30C13.8416 29.9454 10.8967 29.4638 8.03437 28.566L6.33952 27.5798L6.33331 17.6983C6.33394 17.4702 6.31939 17.2425 6.28978 17.0172C6.27895 16.9191 6.26323 16.8219 6.2427 16.7261C6.22369 16.615 6.19773 16.5056 6.16502 16.399C6.0739 16.0725 5.94719 15.7613 5.78809 15.4733C5.81343 15.4287 5.83883 15.3823 5.86364 15.3354C6.1901 14.7138 6.36612 13.9988 6.37265 13.2679V1.93404L8.05187 0.98328C10.9243 0.279625 13.8538 -0.0482148 16.7873 0.00571599C19.7209 -0.0466321 22.6505 0.281191 25.5233 0.98328L27.2108 1.94322L27.2175 13.2844C27.2218 14.0235 27.3994 14.7468 27.7306 15.3745C27.7482 15.4105 27.7674 15.4483 27.7881 15.487C27.6133 15.7996 27.477 16.1398 27.3832 16.4975C27.357 16.5951 27.3354 16.6943 27.3185 16.7947C27.256 17.1135 27.2273 17.4402 27.233 17.7674V27.6166L25.4814 28.6058C22.6466 29.4796 19.7329 29.9477 16.8032 30Z" fill="#0AD05B"/>
<path d="M27.2818 14.4741C25.1406 15.1599 21.1367 15.6202 16.5576 15.6202C12.3015 15.6202 8.54986 15.2221 6.32019 14.6204" stroke="white" stroke-width="1.5" stroke-linecap="round" stroke-linejoin="round"/>
<path d="M4.49729 28.9103C4.2673 28.832 4.05894 28.7008 3.88908 28.5271C3.71922 28.3534 3.59262 28.1421 3.51951 27.9104C3.49234 27.8034 3.4775 27.6935 3.47528 27.5831V17.7172C3.47994 17.5839 3.47104 17.4505 3.44872 17.319C3.44461 17.2725 3.4357 17.2264 3.42215 17.1817C3.41394 17.1399 3.40362 17.0986 3.39123 17.0579V17.0579C3.28102 16.7014 3.07791 16.3808 2.80277 16.1288V16.1288C2.80277 16.1288 2.68338 16.0273 2.62142 15.9828C2.52985 15.9171 2.43374 15.8579 2.33382 15.8058H2.28523C2.00899 15.6716 1.70736 15.5978 1.40039 15.5892V15.5184C1.70649 15.5145 2.00822 15.4452 2.28523 15.3149V15.3149L2.35602 15.2839L2.44007 15.2396L2.48872 15.2087L2.56835 15.1556C2.8275 14.9865 3.04525 14.7612 3.20546 14.4964V14.4964C3.39991 14.1746 3.50385 13.8062 3.50632 13.4302V13.3594V2.16622C3.51383 2.05789 3.53462 1.9509 3.56822 1.84764C3.63676 1.6104 3.762 1.3934 3.93311 1.21536C4.10423 1.03732 4.31609 0.903581 4.55042 0.825684" stroke="#13AA52" stroke-width="1.5" stroke-linecap="round" stroke-linejoin="round"/>
<path d="M29.2683 28.9105C29.4982 28.8322 29.7066 28.7009 29.8764 28.5272C30.0463 28.3535 30.1729 28.1423 30.246 27.9106C30.2838 27.8007 30.3061 27.6861 30.3124 27.57V17.7173C30.3069 17.5839 30.3173 17.4502 30.3433 17.3192V17.3192C30.3475 17.2726 30.3563 17.2266 30.3698 17.1819C30.3781 17.1401 30.3884 17.0988 30.4008 17.058C30.5127 16.7013 30.7173 16.3807 30.9937 16.129C31.0511 16.0766 31.1116 16.0278 31.175 15.983C31.266 15.9163 31.3622 15.8571 31.4627 15.806H31.5069C31.7831 15.6718 32.0847 15.5979 32.3917 15.5892V15.5184C32.0856 15.5146 31.7839 15.4452 31.5069 15.3149V15.3149L31.4361 15.2839L31.3565 15.2397L31.3078 15.2087L31.2282 15.1557C30.97 14.9854 30.7525 14.7603 30.5911 14.4965V14.4965C30.3953 14.175 30.2898 13.8066 30.2858 13.4302V13.3594V2.1664C30.2611 1.86712 30.1489 1.58171 29.9632 1.34571C29.7775 1.1097 29.5265 0.933529 29.2415 0.839111" stroke="#13AA52" stroke-width="1.5" stroke-linecap="round" stroke-linejoin="round"/>
<path d="M27.6091 2.32532C25.4678 3.01108 21.4639 3.47143 16.8849 3.47143C12.6288 3.47143 8.87714 3.07322 6.64746 2.47157" stroke="white" stroke-width="1.5" stroke-linecap="round" stroke-linejoin="round"/>
</svg>
