<svg width="34" height="32" viewBox="0 0 34 32" fill="none" xmlns="http://www.w3.org/2000/svg">
<path d="M4.531 29.902C4.31876 29.849 4.10651 29.6898 3.94733 29.5306C3.78815 29.3714 3.62896 29.1592 3.5759 28.8939C3.52284 28.7877 3.52284 28.6816 3.52284 28.5755V18.7061C3.52284 18.5469 3.52284 18.4408 3.46978 18.2816C3.46978 18.2286 3.46978 18.1755 3.41672 18.1224C3.41672 18.0694 3.41672 18.0163 3.36366 18.0163C3.25753 17.6449 3.04529 17.3265 2.77998 17.0612C2.77998 17.0612 2.67386 16.9551 2.6208 16.902C2.51468 16.849 2.40855 16.7959 2.35549 16.7428H2.30243C2.03713 16.5837 1.71876 16.5306 1.40039 16.5306V16.4775C1.71876 16.4775 1.98406 16.4245 2.30243 16.2653H2.40855L2.51468 16.2122L2.56774 16.1592H2.6208C2.88611 16 3.09835 15.7877 3.25753 15.5224C3.46978 15.2041 3.5759 14.8326 3.5759 14.4612V14.4082V3.15917C3.5759 3.05305 3.62896 2.94693 3.62896 2.8408C3.68202 2.5755 3.78815 2.36325 3.94733 2.20407C4.10651 2.04489 4.31876 1.8857 4.58406 1.83264" stroke="#13AA52" stroke-width="1.5" stroke-linecap="round" stroke-linejoin="round"/>
<path d="M29.3106 29.902C29.5228 29.849 29.7351 29.6898 29.8943 29.5306C30.0535 29.3714 30.2126 29.1592 30.2657 28.8939C30.3188 28.7877 30.3188 28.6816 30.3188 28.5755V18.7061C30.3188 18.5469 30.3188 18.4408 30.3718 18.2816C30.3718 18.2286 30.3718 18.1755 30.3718 18.1224C30.3718 18.0694 30.3718 18.0163 30.4249 18.0163C30.531 17.6449 30.7433 17.3265 31.0086 17.0612C31.0616 17.0082 31.1147 16.9551 31.1677 16.902C31.2739 16.849 31.38 16.7959 31.433 16.7428H31.4861C31.7514 16.5837 32.0698 16.5306 32.3881 16.5306V16.4775C32.0698 16.4775 31.8045 16.4245 31.4861 16.2653V16.2653L31.38 16.2122L31.3269 16.1592H31.2739C31.0086 16 30.7963 15.7877 30.6371 15.5224C30.4249 15.2041 30.3188 14.8326 30.3188 14.4612V14.4082V3.15917C30.3188 2.8408 30.1596 2.5755 30.0004 2.36325C29.7881 2.15101 29.5759 1.93876 29.2575 1.83264" stroke="#13AA52" stroke-width="1.5" stroke-linecap="round" stroke-linejoin="round"/>
<path d="M16.5623 3.01555C13.1787 3.01555 9.88914 2.66462 7.58643 2.13822L8.24434 1.7288C10.876 1.08543 13.5077 0.734497 16.1864 0.734497C16.3743 0.734497 16.6093 0.734497 16.7973 0.734497C17.0323 0.734497 17.2202 0.734497 17.4082 0.734497C20.0869 0.734497 22.7655 1.08543 25.3972 1.7288L25.9142 2.02124C23.5644 2.66462 20.1809 3.01555 16.5623 3.01555Z" fill="#E7EEEC"/>
<path d="M16.5624 16.9358C12.7089 16.9358 9.0903 16.5849 6.59961 15.883C6.78759 15.3566 6.88157 14.7132 6.88157 14.1283V3.01554C9.32527 3.65891 12.8028 4.06833 16.6094 4.06833C20.6509 4.06833 24.4104 3.60042 26.8541 2.89856V14.1868C26.8541 14.7132 26.9481 15.2396 27.0891 15.766C24.5514 16.5264 20.6979 16.9358 16.5624 16.9358Z" fill="#E7EEEC"/>
<path d="M16.844 31.2654C13.9303 31.2069 11.0637 30.739 8.24404 29.8032L6.83421 28.9258V18.8658C6.83421 18.6319 6.83421 18.3394 6.78722 18.047C6.78722 17.93 6.74022 17.813 6.74022 17.6961C6.74022 17.5791 6.69323 17.4621 6.64623 17.2866C6.59924 17.1697 6.59924 17.0527 6.55225 16.9942C9.13693 17.6376 12.7085 18.047 16.562 18.047C20.6975 18.047 24.598 17.5791 27.1827 16.8187C27.0887 16.9942 27.0417 17.2281 26.9947 17.4036C26.9477 17.5206 26.9477 17.6376 26.9007 17.7545C26.8537 18.1055 26.8067 18.5149 26.8067 18.8658V28.8673L25.3499 29.7447C22.5773 30.739 19.7106 31.2069 16.844 31.2654Z" fill="#B9EACD"/>
</svg>
